<?xml version="1.0" encoding="UTF-8"?>
<svg id="Layer_1" data-name="Layer 1" xmlns="http://www.w3.org/2000/svg" viewBox="0 0 1280 1280">
  <defs>
    <style>
      .cls-1 {
        fill: #e5e1dd;
      }
    </style>
  </defs>
  <g id="LogoLight">
    <path class="cls-1" d="M970.94,777.52c-.32-14.21-1.2-27.37-2.94-40.2l-197.55,197.55-65.59-65.54,231.54-231.54c-10.63-22.17-24.42-47.28-42.13-77.32l-249.12,249.12-65.59-65.54,265.67-265.67c-12-20.15-25.34-42.59-39.33-66.1l-279.06,279.06-65.54-65.59,295.75-295.75c-38.91-65.64-76.35-128.74-97.97-165.31-8.6-14.49-29.58-14.49-38.13,0-20.93,35.32-56.53,95.44-94.06,158.64-52.76,89-109.24,184.12-133.71,224.78-24.47,40.8-42.04,72.77-54.55,100.41-23.46,51.75-29.3,88.36-29.76,139.18-.05,2.39-.05,4.78-.05,7.22,0,41.99,0,134.54,98.34,232.88,31.51,31.51,64.16,52.99,94.84,67.61,65.04,31.05,121.02,31.23,137.39,30.68l1.2-.09c16.01.55,69.78.37,132.88-28.56,31.97-14.67,66.33-36.71,99.35-69.73,98.34-98.34,98.34-190.88,98.34-232.88,0-5.93-.05-11.68-.23-17.29Z"/>
    <path class="cls-1" d="M931.95,1280H348.05c-46.79,0-92.28-9.43-135.21-28.03-41.4-17.94-78.62-43.6-110.62-76.25-32.01-32.65-57.15-70.62-74.74-112.86C9.25,1019.07,0,972.66,0,924.93V355.07c0-47.74,9.25-94.15,27.48-137.93,17.59-42.24,42.73-80.21,74.74-112.86,32.01-32.65,69.23-58.31,110.62-76.25C255.77,9.43,301.25,0,348.05,0h583.9C978.75,0,1024.23,9.43,1067.16,28.03c41.4,17.94,78.62,43.6,110.62,76.25,32.01,32.65,57.15,70.62,74.74,112.86,18.23,43.79,27.48,90.19,27.48,137.93v569.85c0,47.74-9.25,94.15-27.48,137.93-17.59,42.24-42.73,80.21-74.74,112.86-32.01,32.65-69.23,58.31-110.62,76.25-42.92,18.6-88.41,28.03-135.21,28.03ZM348.05,47.51c-40.5,0-79.87,8.16-117,24.25-35.88,15.55-68.14,37.79-95.9,66.12-27.76,28.32-49.57,61.24-64.81,97.84-15.77,37.88-23.77,78.04-23.77,119.36v569.85c0,41.32,8,81.48,23.77,119.36,15.24,36.6,37.05,69.52,64.81,97.84,27.76,28.32,60.03,50.57,95.9,66.12,37.13,16.09,76.49,24.25,117,24.25h583.9c40.5,0,79.87-8.16,117-24.25,35.88-15.55,68.14-37.79,95.9-66.12,27.76-28.32,49.57-61.24,64.81-97.84,15.77-37.88,23.77-78.04,23.77-119.36V355.07c0-41.32-8-81.48-23.77-119.36-15.24-36.6-37.05-69.52-64.81-97.84-27.76-28.32-60.03-50.57-95.9-66.12-37.13-16.09-76.49-24.25-117-24.25H348.05Z"/>
  </g>
</svg>